<?xml version="1.0" encoding="UTF-8"?>
<svg id="Camada_1" xmlns="http://www.w3.org/2000/svg" version="1.1" xmlns:xlink="http://www.w3.org/1999/xlink" viewBox="0 0 628.92 115.5">
  <!-- Generator: Adobe Illustrator 30.1.0, SVG Export Plug-In . SVG Version: 2.1.1 Build 65)  -->
  <defs>
    <style>
      .st0 {
        fill: #a2acbc;
      }

      .st1 {
        fill: #8d2b2a;
      }

      .st2, .st3 {
        fill: #6b7280;
      }

      .st3 {
        fill-rule: evenodd;
      }
    </style>
    <symbol id="MPAC-H" viewBox="0 0 235.99 63.96">
      <g>
        <path class="st2" d="M8.94,63.7v-11.86l-3.05,11.86h-1.36l-2.92-11.86v11.86H.25v-12.58h2.35l2.63,10.73,2.76-10.73h2.32v12.58h-1.37ZM12.42,51.11h1.35v1.71h-1.35v-1.71ZM12.42,54.29h1.35v9.4h-1.35v-9.4ZM15.75,63.7v-9.4h1.23v1.17c.23-.46.54-.8.93-1.03s.86-.34,1.42-.34c.82,0,1.41.21,1.76.63s.53,1.14.53,2.16v6.81h-1.32v-6.91c0-.51-.11-.89-.32-1.14-.22-.25-.55-.38-.99-.38-.59,0-1.05.18-1.39.56-.34.37-.52.87-.52,1.5v6.37h-1.33ZM23.56,51.11h1.35v1.71h-1.35v-1.71ZM23.56,54.29h1.35v9.4h-1.35v-9.4ZM26.64,60.87h1.3v.05c-.02.12-.03.21-.03.27,0,.51.14.9.44,1.17.29.27.71.4,1.26.4.5,0,.9-.14,1.19-.41s.44-.64.44-1.11c0-.74-.57-1.31-1.7-1.7h-.03c-1.14-.4-1.87-.8-2.21-1.19-.34-.39-.51-.96-.51-1.71,0-.82.24-1.46.72-1.92s1.15-.69,2-.69c.91,0,1.6.22,2.06.66.46.44.69,1.09.69,1.95v.13h-1.24c-.03-.57-.16-.98-.38-1.24-.23-.26-.58-.39-1.06-.39-.51,0-.89.12-1.15.36s-.39.61-.39,1.08c0,.21.03.4.1.57s.17.3.3.41c.24.21.71.43,1.42.65.38.12.67.22.88.3.64.25,1.1.57,1.38.95.27.38.41.89.41,1.53,0,.94-.27,1.67-.81,2.18-.54.51-1.31.77-2.31.77-.91,0-1.61-.24-2.08-.73s-.7-1.21-.7-2.16v-.19h.01ZM35.78,61.75c0,.39.07.65.21.77s.48.18,1.01.18h.29v1.14c-.07,0-.18,0-.32.02-.34.02-.55.03-.64.03-.62,0-1.08-.12-1.38-.37s-.45-.62-.45-1.12v-7.01h-1.3v-1.09h1.3v-2.51h1.28v2.51h1.52v1.09h-1.52v6.37h0ZM39.46,57.98h3.18v-.25c0-.86-.12-1.52-.38-1.96-.25-.44-.63-.66-1.13-.66-.56,0-.98.23-1.26.71-.28.47-.41,1.19-.41,2.16M42.66,60.52h1.28c0,1.11-.26,1.96-.76,2.55-.49.59-1.2.88-2.12.88-1.01,0-1.75-.4-2.23-1.19-.48-.79-.72-2.01-.72-3.67,0-1.75.24-3.04.72-3.85.48-.81,1.23-1.22,2.26-1.22.97,0,1.69.35,2.17,1.04.48.69.71,1.75.71,3.16v.82h-4.5v.42c0,1.18.14,2.04.41,2.57.27.54.7.81,1.29.81.46,0,.82-.2,1.09-.61s.4-.96.4-1.66v-.06h0ZM40.28,53.29l1.38-2.22h1.45l-2.01,2.22h-.82ZM45.71,63.7v-9.4h1.21v1.54c.19-.55.47-.98.86-1.29.38-.31.82-.47,1.31-.47h.34c.08,0,.16,0,.22.03v1.41c-.07-.04-.15-.07-.23-.09-.09-.02-.18-.03-.28-.03-.67,0-1.19.22-1.57.67-.37.45-.56,1.07-.56,1.87v5.76h-1.3ZM50.54,51.11h1.35v1.71h-1.35v-1.71ZM50.54,54.29h1.35v9.4h-1.35v-9.4ZM53.6,59c0-1.69.27-2.94.81-3.75.54-.81,1.37-1.22,2.48-1.22s1.96.4,2.49,1.21c.54.81.8,2.06.8,3.76s-.27,2.96-.8,3.76-1.36,1.2-2.49,1.2-1.97-.4-2.5-1.19c-.52-.79-.79-2.05-.79-3.76M55,59c0,1.41.14,2.4.43,2.97s.77.86,1.45.86,1.15-.29,1.44-.88c.29-.59.44-1.57.44-2.95s-.14-2.38-.44-2.96c-.29-.57-.77-.86-1.44-.86s-1.16.28-1.45.85-.44,1.56-.44,2.96M67.56,57.13h1.84c.85,0,1.47-.2,1.87-.61s.6-1.05.6-1.92c0-.8-.2-1.38-.6-1.74s-1.05-.54-1.95-.54h-1.75v4.8h-.01ZM66.17,63.7v-12.58h3.21c1.37,0,2.36.28,2.99.84s.94,1.45.94,2.67-.33,2.19-.98,2.82c-.66.64-1.62.96-2.89.96h-1.87v5.29s-1.4,0-1.4,0ZM79.42,63.7v-1.22c-.18.47-.48.84-.88,1.09-.4.26-.89.38-1.45.38-.78,0-1.35-.19-1.71-.58s-.54-1-.54-1.85v-7.23h1.37v7.26c0,.39.1.69.29.9.19.21.46.32.81.32.63,0,1.12-.19,1.47-.59.35-.39.53-.94.53-1.65v-6.24h1.33v9.4h-1.22ZM76.76,53.29l1.38-2.22h1.45l-2.01,2.22s-.82,0-.82,0ZM83.93,58.92c0,1.36.14,2.33.43,2.91.29.58.75.87,1.41.87.61,0,1.05-.3,1.32-.91.27-.6.41-1.59.41-2.97,0-1.23-.14-2.13-.44-2.71-.29-.58-.74-.87-1.34-.87-.64,0-1.1.27-1.38.82-.27.54-.41,1.5-.41,2.86M82.72,63.7v-12.58h1.3v4.15c.11-.35.36-.64.73-.86s.81-.33,1.3-.33c.91,0,1.62.4,2.12,1.21.5.81.76,1.94.76,3.41,0,1.69-.25,2.98-.75,3.86s-1.23,1.32-2.2,1.32c-.5,0-.93-.12-1.31-.38-.37-.25-.62-.58-.74-1v1.19h-1.21ZM90.66,51.11h1.3v12.58h-1.3v-12.58ZM93.92,51.11h1.35v1.71h-1.35v-1.71ZM93.92,54.29h1.35v9.4h-1.35v-9.4ZM101.78,60.39h1.28c0,1.13-.26,2.01-.78,2.63-.52.62-1.25.93-2.2.93-1.04,0-1.81-.41-2.31-1.23-.5-.82-.75-2.09-.75-3.79s.26-2.86.78-3.67,1.31-1.21,2.37-1.21c.87,0,1.56.27,2.07.81.51.53.76,1.27.76,2.19v.2h-1.28c-.03-.66-.17-1.16-.42-1.5-.26-.34-.62-.52-1.08-.52-.64,0-1.1.28-1.37.85-.27.57-.41,1.54-.41,2.91s.14,2.36.41,2.94c.28.57.74.86,1.38.86.49,0,.87-.2,1.13-.61.26-.41.41-1,.42-1.77M104.65,59c0-1.69.27-2.94.81-3.75.54-.81,1.37-1.22,2.48-1.22s1.96.4,2.49,1.21c.54.81.8,2.06.8,3.76s-.27,2.96-.8,3.76c-.53.8-1.36,1.2-2.49,1.2s-1.97-.4-2.5-1.19c-.53-.79-.79-2.05-.79-3.76M106.04,59c0,1.41.14,2.4.43,2.97s.77.86,1.45.86,1.15-.29,1.44-.88c.29-.59.44-1.57.44-2.95s-.14-2.38-.44-2.96c-.29-.57-.77-.86-1.44-.86s-1.16.28-1.45.85c-.29.57-.44,1.56-.44,2.96M121.83,58.92c0-1.37-.13-2.33-.4-2.87-.27-.54-.72-.81-1.37-.81s-1.07.29-1.36.87-.44,1.48-.44,2.7c0,1.36.14,2.35.42,2.96s.72.92,1.33.92c.65,0,1.11-.29,1.4-.86.28-.58.42-1.55.42-2.92M123.06,63.7h-1.23v-1.19c-.12.41-.36.74-.73,1-.37.25-.8.38-1.3.38-.97,0-1.7-.44-2.21-1.33-.51-.88-.76-2.17-.76-3.86,0-1.46.26-2.6.76-3.41.51-.81,1.22-1.21,2.13-1.21.49,0,.93.11,1.3.33s.61.51.71.86v-4.15h1.32v12.58h.01ZM124.78,58.82c0-1.75.28-3.05.84-3.89s1.42-1.27,2.57-1.27,2.03.42,2.58,1.25c.55.84.83,2.14.83,3.9s-.28,3.07-.83,3.89c-.55.83-1.41,1.24-2.59,1.24s-2.04-.41-2.59-1.23c-.54-.82-.82-2.12-.82-3.9M126.23,58.83c0,1.46.15,2.48.45,3.08.3.6.8.89,1.51.89s1.2-.3,1.5-.91.45-1.63.45-3.06-.15-2.47-.45-3.07-.8-.89-1.5-.89-1.2.29-1.5.88-.45,1.62-.45,3.07M137.81,63.7v-13.05h6.44v1.36h-5.01v4.19h4.68v1.32h-4.68v4.8h5.06v1.37h-6.49ZM145.89,60.76h1.35v.05c-.02.12-.03.22-.03.28,0,.53.15.94.45,1.21.3.28.74.42,1.31.42.52,0,.93-.14,1.23-.43.3-.28.45-.66.45-1.15,0-.77-.59-1.36-1.76-1.76h-.03c-1.18-.42-1.94-.83-2.29-1.24-.35-.41-.52-1-.52-1.77,0-.85.25-1.52.74-1.99.5-.48,1.19-.71,2.08-.71.94,0,1.65.23,2.13.68.48.46.72,1.13.72,2.02v.14h-1.29c-.03-.59-.16-1.02-.4-1.28-.24-.27-.6-.4-1.1-.4-.53,0-.93.12-1.19.38-.27.25-.4.63-.4,1.12,0,.22.04.42.11.59s.17.32.31.42c.25.21.74.44,1.47.68.39.12.7.23.91.31.67.26,1.14.59,1.43.99.28.4.43.92.43,1.58,0,.98-.28,1.73-.84,2.26s-1.35.79-2.39.79c-.95,0-1.66-.25-2.15-.76-.49-.51-.73-1.25-.73-2.24v-.2h0ZM155.36,61.68c0,.41.07.67.22.8s.49.19,1.05.19h.3v1.18c-.08,0-.19,0-.33.02-.35.02-.57.03-.67.03-.64,0-1.12-.13-1.43-.38-.31-.26-.47-.65-.47-1.16v-7.27h-1.35v-1.13h1.35v-2.6h1.32v2.6h1.58v1.13h-1.58v6.6h0ZM162.22,58.44c-.21.24-.68.49-1.42.75-.06.02-.11.04-.14.05-.63.22-1.04.47-1.23.75s-.29.68-.29,1.23c0,.49.11.86.32,1.13s.52.4.9.4c.56,0,1.01-.21,1.34-.64s.5-1,.5-1.73v-1.93h.02,0ZM164.36,63.71c-.17.03-.32.05-.44.06-.13,0-.24.02-.35.02-.38,0-.68-.12-.9-.36-.22-.24-.34-.59-.35-1.03-.21.5-.51.88-.9,1.14-.39.27-.86.4-1.4.4-.7,0-1.25-.24-1.64-.71-.39-.47-.59-1.14-.59-2s.18-1.48.54-1.92,1.14-.86,2.35-1.27h.03c.99-.34,1.48-.73,1.48-1.18v-.9c0-.4-.11-.69-.34-.88-.23-.18-.59-.28-1.09-.28s-.84.13-1.08.38-.35.64-.35,1.17v.17h-1.27c.02-.99.25-1.72.71-2.18s1.17-.68,2.16-.68c.92,0,1.59.21,2.02.63.42.42.64,1.09.64,2v5.7c0,.25.05.44.14.55s.24.16.44.16c.04,0,.1,0,.18-.03h.03v1.04h-.02ZM170.66,58.75c0-1.42-.14-2.41-.42-2.97s-.75-.84-1.42-.84-1.1.3-1.41.91c-.3.6-.46,1.54-.46,2.8,0,1.41.14,2.43.43,3.07.29.63.75.95,1.38.95.67,0,1.15-.3,1.45-.9.29-.6.44-1.61.44-3.02M171.93,63.7h-1.27v-1.23c-.12.43-.38.77-.76,1.03-.38.26-.83.39-1.35.39-1,0-1.76-.46-2.29-1.38-.53-.92-.79-2.25-.79-4,0-1.52.26-2.7.79-3.54s1.27-1.26,2.21-1.26c.51,0,.96.12,1.35.35s.64.53.74.89v-4.31h1.37v13.05h0ZM173.69,58.82c0-1.75.28-3.05.84-3.89s1.42-1.27,2.57-1.27,2.03.42,2.58,1.25c.56.84.83,2.14.83,3.9s-.28,3.07-.82,3.89c-.55.83-1.41,1.24-2.59,1.24s-2.04-.41-2.59-1.23c-.54-.82-.82-2.12-.82-3.9M175.14,58.83c0,1.46.15,2.48.45,3.08s.8.89,1.51.89,1.2-.3,1.5-.91.45-1.63.45-3.06-.15-2.47-.45-3.07-.8-.89-1.5-.89-1.2.29-1.5.88-.45,1.62-.45,3.07M191.51,58.75c0-1.42-.14-2.41-.42-2.97s-.75-.84-1.42-.84-1.1.3-1.41.91c-.3.6-.45,1.54-.45,2.8,0,1.41.14,2.43.43,3.07.29.63.75.95,1.38.95.67,0,1.15-.3,1.45-.9.29-.6.44-1.61.44-3.02M192.78,63.7h-1.27v-1.23c-.12.43-.38.77-.76,1.03-.38.26-.83.39-1.35.39-1,0-1.76-.46-2.29-1.38-.53-.92-.79-2.25-.79-4,0-1.52.26-2.7.79-3.54s1.27-1.26,2.21-1.26c.51,0,.96.12,1.35.35s.64.53.74.89v-4.31h1.37v13.05h0ZM194.54,58.82c0-1.75.28-3.05.84-3.89s1.42-1.27,2.57-1.27,2.03.42,2.58,1.25c.56.84.83,2.14.83,3.9s-.28,3.07-.83,3.89c-.55.83-1.41,1.24-2.59,1.24s-2.04-.41-2.59-1.23c-.54-.82-.82-2.12-.82-3.9M195.99,58.83c0,1.46.15,2.48.45,3.08s.8.89,1.51.89,1.2-.3,1.5-.91.45-1.63.45-3.06-.15-2.47-.45-3.07-.8-.89-1.5-.89-1.2.29-1.5.88-.45,1.62-.45,3.07M209.42,58.61h3.46l-1.73-6.83-1.73,6.83h0ZM206.68,63.7l3.54-13.05h1.85l3.59,13.05h-1.47l-.98-3.76h-4.11l-.94,3.76s-1.48,0-1.48,0ZM221.64,60.26h1.33c0,1.17-.27,2.08-.81,2.73-.54.64-1.3.97-2.28.97-1.08,0-1.88-.43-2.4-1.28-.52-.85-.78-2.16-.78-3.93s.27-2.97.81-3.81,1.36-1.26,2.45-1.26c.91,0,1.62.28,2.15.84s.79,1.31.79,2.28v.2h-1.32c-.03-.68-.18-1.2-.44-1.56-.26-.36-.64-.53-1.12-.53-.66,0-1.14.3-1.42.88-.29.59-.43,1.59-.43,3.01s.14,2.45.43,3.04c.29.6.76.89,1.43.89.51,0,.9-.21,1.17-.64.27-.42.42-1.03.44-1.84M224.88,63.7v-9.75h1.26v1.59c.2-.57.49-1.02.89-1.34.39-.32.85-.48,1.36-.48h.35c.08,0,.16,0,.23.03v1.46c-.07-.04-.15-.07-.24-.09-.09-.02-.18-.03-.29-.03-.7,0-1.24.23-1.62.69-.39.46-.58,1.11-.58,1.94v5.97h-1.36ZM231.03,57.77h3.3v-.26c0-.9-.13-1.57-.39-2.03-.26-.45-.65-.68-1.18-.68-.58,0-1.02.24-1.3.73s-.43,1.24-.43,2.24M234.34,60.4h1.33c0,1.15-.27,2.03-.79,2.64-.51.61-1.25.92-2.2.92-1.04,0-1.82-.41-2.31-1.23-.5-.82-.75-2.09-.75-3.8,0-1.82.25-3.15.75-4,.5-.84,1.28-1.27,2.35-1.27,1.01,0,1.75.36,2.25,1.07s.74,1.81.74,3.28v.85h-4.66v.44c0,1.22.14,2.11.42,2.67s.73.84,1.34.84c.48,0,.85-.21,1.13-.63s.42-.99.42-1.72v-.07h-.02Z"/>
        <path class="st3" d="M53.35,13.92v15.29c1.17.91,2.27,1.9,3.32,2.95,1.28,1.29,2.47,2.67,3.55,4.15.64.88,1.25,1.79,1.82,2.73V4.13l-.14.25c-.61,1.05-1.35,2.03-2.16,3.09-.48.63-.97,1.23-1.47,1.8s-1.03,1.14-1.59,1.7h0c-1.04,1.05-2.15,2.03-3.32,2.95"/>
        <path class="st3" d="M0,2.89c.64,1.16,1.34,2.28,2.09,3.35,1.19,1.69,2.52,3.28,3.97,4.73.83.84,1.71,1.64,2.62,2.39v16.41c-.91.75-1.79,1.55-2.62,2.39l-.03.03c-1.44,1.45-2.76,3.02-3.94,4.7C1.34,37.97.64,39.09,0,40.24,0,40.24,0,2.89,0,2.89Z"/>
        <path class="st1" d="M79.37,42.57V1.01h14.58l5.44,20.23c.49,1.79.93,3.53,1.32,5.21.39,1.69.74,3.32,1.03,4.92.35-1.7.76-3.47,1.21-5.32.45-1.86.97-3.84,1.54-5.97l5.14-19.07h14.55v41.56h-9.66v-18.43c0-1.3.03-3.12.1-5.46s.16-5.05.3-8.11l-7.95,32h-10.5l-7.77-32c.13,3.69.23,7,.31,9.95.08,2.94.11,5.24.11,6.9v15.15s-9.75,0-9.75,0Z"/>
        <path class="st1" d="M139.16,19.35h7.03c1.91,0,3.32-.4,4.23-1.22.91-.82,1.36-2.09,1.36-3.8s-.47-2.9-1.42-3.72-2.38-1.22-4.28-1.22h-6.91v9.96h0ZM128.53,42.57V1.01h18.93c4.79,0,8.44,1.12,10.95,3.34,2.51,2.23,3.77,5.45,3.77,9.66,0,4.42-1.24,7.81-3.71,10.17s-6.03,3.54-10.67,3.54h-8.63v14.84h-10.64,0Z"/>
        <path class="st2" d="M173.33,26.34h9.05l-4.61-14.33s-4.44,14.33-4.44,14.33ZM172.35,1.01h11.57l14.6,41.56h-11.37l-2.53-7.62h-13.81l-2.37,7.62h-10.97L172.35,1.01h0Z"/>
        <path class="st2" d="M235.88,28.01c-.71,4.99-2.67,8.85-5.86,11.6s-7.31,4.12-12.36,4.12c-6.05,0-10.93-1.98-14.63-5.95-3.71-3.97-5.56-9.19-5.56-15.66s1.89-12.11,5.65-16.11c3.78-4.01,8.83-6.01,15.15-6.01,5.01,0,9.12,1.33,12.29,3.98,3.17,2.65,4.98,6.27,5.43,10.87h-9.94c-.49-1.99-1.41-3.5-2.77-4.5-1.35-1.01-3.13-1.51-5.35-1.51-2.95,0-5.3,1.17-7.02,3.52s-2.59,5.57-2.59,9.65.81,7.22,2.44,9.47c1.63,2.24,3.92,3.37,6.88,3.37,2.38,0,4.28-.59,5.71-1.75,1.44-1.17,2.33-2.86,2.68-5.08h9.85Z"/>
        <rect class="st1" x="27.01" y="34.32" width="7.82" height="7.86"/>
        <path class="st1" d="M57.41,8.26c.5-.58.98-1.16,1.43-1.74.78-1.02,1.5-1.97,2.08-2.97.46-.8.84-1.64,1.11-2.6h-7.83c-.46.67-.95,1.32-1.46,1.95-.59.72-1.2,1.39-1.83,2.03-2.57,2.58-5.65,4.67-9.07,6.09-3.29,1.37-6.9,2.13-10.67,2.13s-7.39-.76-10.68-2.13c-3.42-1.42-6.5-3.51-9.07-6.09h0c-.64-.64-1.25-1.32-1.83-2.03-.51-.63-1-1.28-1.46-1.95H0c.77,1.53,1.65,2.99,2.63,4.38,1.15,1.63,2.44,3.17,3.84,4.58,3.22,3.24,7.07,5.85,11.34,7.63,4.11,1.71,8.63,2.66,13.36,2.66s9.25-.95,13.36-2.66c4.27-1.78,8.12-4.39,11.34-7.63h0c.52-.52,1.04-1.08,1.54-1.65"/>
        <path class="st1" d="M57.41,33.17c.5.49.98.99,1.43,1.49.78.88,1.5,1.69,2.08,2.55.46.69.84,1.41,1.11,2.23h-7.83c-.46-.58-.95-1.13-1.46-1.67-.59-.61-1.2-1.2-1.83-1.74-2.57-2.22-5.65-4-9.07-5.23-3.29-1.18-6.9-1.82-10.67-1.82s-7.39.65-10.68,1.82c-3.42,1.22-6.5,3.01-9.07,5.23h0c-.64.55-1.25,1.13-1.83,1.74-.51.54-1,1.1-1.46,1.67H0c.77-1.31,1.65-2.56,2.63-3.75,1.15-1.4,2.44-2.72,3.84-3.93,3.22-2.78,7.07-5.02,11.34-6.54,4.11-1.47,8.63-2.28,13.36-2.28s9.25.81,13.36,2.28c4.27,1.53,8.12,3.76,11.34,6.54h0c.52.45,1.04.92,1.54,1.42"/>
      </g>
    </symbol>
  </defs>
  <use width="235.99" height="63.96" transform="translate(14.97 18.99) scale(1.2)" xlink:href="#MPAC-H"/>
  <rect class="st0" x="342.49" y="14.54" width="3" height="85.92"/>
  <g>
    <path class="st1" d="M389.39,45.83h10.27v1.4c0,2.64.31,4.49.93,5.57s1.67,1.62,3.14,1.62c1.18,0,2.12-.41,2.8-1.23s1.03-1.93,1.03-3.34c0-2.32-1.67-4.55-5.01-6.69-.54-.37-.95-.65-1.24-.84l-.53-.34c-4.5-3.03-7.3-5.31-8.4-6.84-.79-1.16-1.39-2.47-1.8-3.92-.42-1.45-.62-3.04-.62-4.76,0-4.19,1.21-7.48,3.64-9.86,2.43-2.39,5.77-3.58,10.02-3.58,4.62,0,8.16,1.17,10.59,3.52,2.44,2.35,3.65,5.74,3.65,10.18,0,.19-.01.44-.03.78s-.03.59-.03.78h-10.05v-.59c0-2.09-.33-3.68-.98-4.76-.65-1.08-1.6-1.62-2.85-1.62-1.06,0-1.91.38-2.55,1.14s-.96,1.76-.96,3c0,2.03,1.83,4.19,5.48,6.47.66.44,1.17.77,1.53,1,.29.17.69.43,1.21.78,3.92,2.49,6.43,4.59,7.53,6.28.69,1.1,1.21,2.35,1.57,3.75.36,1.4.54,2.92.54,4.56,0,4.79-1.24,8.48-3.73,11.08-2.49,2.59-6.05,3.89-10.67,3.89-4.85,0-8.5-1.24-10.94-3.72s-3.65-6.17-3.65-11.06c0-.31,0-.64.02-.98.01-.34.04-.89.11-1.63l-.02-.04Z"/>
    <path class="st1" d="M423.02,62.07V14.16h26.07v9.3h-14.94v8.8h13.78v9.61h-13.78v10.46h14.94v9.74h-26.07Z"/>
    <path class="st1" d="M474.39,43.53h11.01c.02.29.04.6.05.93.01.33.02.83.02,1.5,0,5.85-1.28,10.19-3.84,13.02-2.56,2.83-6.49,4.25-11.78,4.25-3.11,0-5.78-.52-8-1.56s-4.01-2.6-5.38-4.7c-.95-1.49-1.64-3.57-2.05-6.22s-.62-6.87-.62-12.63.21-9.98.62-12.63,1.1-4.73,2.05-6.22c1.35-2.07,3.12-3.64,5.32-4.68,2.2-1.05,4.82-1.57,7.87-1.57,5.25,0,9.18,1.46,11.81,4.37,2.62,2.91,3.94,7.28,3.94,13.08v.47l-10.89-.03c-.04-3.26-.42-5.54-1.12-6.86-.71-1.32-1.89-1.97-3.55-1.97-1.81,0-3.04.8-3.7,2.41s-1,5.85-1,12.74v.9c0,7.41.33,11.94,1,13.61.66,1.67,1.9,2.5,3.7,2.5,1.68,0,2.86-.61,3.53-1.82.68-1.21,1.01-3.47,1.01-6.77v-2.12Z"/>
    <path class="st1" d="M491.48,62.07V14.16h11.01c4.06,0,7.07.18,9.01.53,1.94.35,3.57.94,4.9,1.77,1.76,1.08,3.11,2.68,4.03,4.81.92,2.13,1.38,4.66,1.38,7.61,0,4.85-1.28,8.54-3.84,11.06s-6.32,3.78-11.28,3.78h-3.95v18.36h-11.26ZM502.74,34.79c.17.02.36.04.58.06s.52.03.92.03c2.24,0,3.86-.52,4.85-1.57,1-1.05,1.5-2.73,1.5-5.06,0-1.93-.53-3.32-1.59-4.17s-2.82-1.27-5.29-1.27h-.96v11.98h-.01Z"/>
    <path class="st1" d="M551.19,62.07h-24.67V14.16h11.2v38.24h13.47v9.68h0Z"/>
    <path class="st1" d="M552.59,62.07l10.45-47.92h13.32l10.33,47.92h-11.2l-1.4-9.18h-8.8l-1.4,9.18h-11.3ZM566.44,44.25h6.44l-3.2-20.91-3.24,20.91Z"/>
    <path class="st1" d="M589.8,62.07V14.16h11.67l9.3,29.56c-.37-4.98-.65-9.27-.82-12.88-.18-3.61-.27-6.66-.27-9.15v-7.53h9.99v47.92h-11.7l-9.37-30.46c.41,3.96.73,7.81.95,11.53.22,3.72.33,7.34.33,10.84v8.09h-10.08,0Z"/>
  </g>
  <g>
    <path class="st2" d="M396.71,84.49c-.7,0-1.28-.15-1.75-.45-.47-.3-.82-.72-1.06-1.25s-.38-1.15-.42-1.85l1.5-.41c.03.43.1.85.2,1.25s.28.73.52.99.58.38,1.01.38.78-.12,1-.37c.23-.24.34-.6.34-1.06,0-.55-.12-1-.38-1.33-.25-.34-.57-.68-.95-1.02l-2.04-1.8c-.4-.35-.7-.73-.89-1.15s-.29-.93-.29-1.54c0-.89.25-1.58.77-2.07.51-.49,1.21-.74,2.09-.74.48,0,.9.06,1.27.19.37.12.67.32.92.58.24.26.44.59.59.99s.24.86.29,1.39l-1.44.39c-.03-.4-.09-.77-.18-1.1-.09-.34-.25-.61-.47-.81-.22-.21-.55-.31-.97-.31s-.75.11-.99.34c-.23.23-.35.56-.35,1,0,.37.06.68.19.92s.33.49.61.74l2.06,1.8c.46.4.87.88,1.22,1.44.35.55.53,1.21.53,1.98,0,.6-.13,1.12-.38,1.55-.25.44-.59.77-1.03,1s-.94.35-1.51.35v-.02Z"/>
    <path class="st2" d="M402.46,84.36v-12.17h4.72v1.26h-3.02v4.03h2.45v1.2h-2.45v4.46h3.05v1.22h-4.75Z"/>
    <path class="st2" d="M413.13,84.49c-.86,0-1.53-.18-2.01-.54s-.81-.85-.99-1.46c-.19-.61-.28-1.29-.28-2.04v-4.3c0-.82.09-1.54.28-2.15s.52-1.09.99-1.42c.48-.33,1.14-.5,2.01-.5.76,0,1.36.14,1.81.42.44.28.77.68.96,1.2.2.52.29,1.15.29,1.88v.96h-1.61v-.86c0-.45-.02-.85-.07-1.2-.04-.34-.17-.61-.37-.8s-.54-.29-1.01-.29-.83.1-1.05.31-.37.5-.43.87c-.07.38-.1.81-.1,1.32v4.82c0,.61.05,1.1.15,1.45.1.36.27.61.5.76s.54.23.93.23c.46,0,.79-.1.99-.31.2-.21.32-.49.38-.85.05-.36.08-.78.08-1.26v-.9h1.61v.9c0,.74-.09,1.4-.27,1.96-.18.57-.49,1.01-.93,1.32-.44.32-1.06.48-1.86.48Z"/>
    <path class="st2" d="M419.32,84.36v-12.17h2.45c.81,0,1.48.11,2.01.32s.93.56,1.18,1.04.38,1.1.38,1.87c0,.47-.05.9-.15,1.28s-.26.71-.48.98-.51.46-.87.58l1.73,6.1h-1.64l-1.59-5.71h-1.32v5.71s-1.7,0-1.7,0ZM421.02,77.43h.65c.48,0,.87-.06,1.17-.18.3-.12.52-.32.66-.62.14-.29.21-.7.21-1.22,0-.71-.13-1.22-.39-1.54s-.78-.47-1.55-.47h-.75v4.03Z"/>
    <path class="st2" d="M428.62,84.36v-12.17h4.72v1.26h-3.02v4.03h2.45v1.2h-2.45v4.46h3.05v1.22h-4.75Z"/>
    <path class="st2" d="M437.58,84.36v-10.91h-2.06v-1.26h5.75v1.26h-2v10.91h-1.7.01Z"/>
    <path class="st2" d="M443.26,84.36l2.58-12.17h1.64l2.6,12.17h-1.61l-.56-3.07h-2.48l-.59,3.07h-1.59,0ZM445.66,80.07h2.03l-1.02-5.48-1.01,5.48Z"/>
    <path class="st2" d="M452.81,84.36v-12.17h2.45c.81,0,1.48.11,2.01.32s.93.56,1.18,1.04.38,1.1.38,1.87c0,.47-.05.9-.15,1.28s-.26.71-.48.98-.51.46-.87.58l1.73,6.1h-1.64l-1.59-5.71h-1.32v5.71s-1.7,0-1.7,0ZM454.51,77.43h.65c.48,0,.87-.06,1.17-.18.3-.12.52-.32.66-.62.14-.29.21-.7.21-1.22,0-.71-.13-1.22-.39-1.54s-.78-.47-1.55-.47h-.75v4.03Z"/>
    <path class="st2" d="M462.21,84.36v-12.17h1.67v12.17h-1.67Z"/>
    <path class="st2" d="M466.69,84.36l2.58-12.17h1.64l2.6,12.17h-1.61l-.56-3.07h-2.48l-.59,3.07h-1.59,0ZM469.09,80.07h2.03l-1.02-5.48-1.01,5.48Z"/>
    <path class="st2" d="M481.18,84.36v-12.17h2.65c.9,0,1.62.14,2.14.41s.9.69,1.13,1.24c.22.55.34,1.24.34,2.06v4.48c0,.86-.11,1.59-.34,2.18-.23.59-.59,1.04-1.1,1.35-.51.3-1.19.46-2.04.46h-2.78ZM482.88,83.14h.96c.62,0,1.06-.12,1.32-.36s.42-.59.47-1.05.08-1.02.08-1.67v-3.95c0-.63-.04-1.14-.12-1.53s-.25-.68-.52-.86-.7-.27-1.28-.27h-.92v9.69h.01Z"/>
    <path class="st2" d="M490.61,84.36v-12.17h4.72v1.26h-3.02v4.03h2.45v1.2h-2.45v4.46h3.05v1.22h-4.75Z"/>
    <path class="st2" d="M503.17,84.36v-12.17h3.02c.73,0,1.32.13,1.75.4.43.27.75.65.95,1.15s.3,1.11.3,1.82c0,.64-.11,1.2-.34,1.67s-.56.83-1,1.09c-.44.25-.99.38-1.65.38h-1.34v5.67h-1.7.01ZM504.87,77.48h.78c.49,0,.88-.06,1.16-.17s.48-.3.6-.58.18-.66.18-1.16c0-.58-.04-1.03-.13-1.34s-.26-.53-.53-.65-.69-.18-1.26-.18h-.8v4.07h0Z"/>
    <path class="st2" d="M511.89,84.36v-12.17h1.7v10.95h3.11v1.22h-4.81Z"/>
    <path class="st2" d="M518.7,84.36l2.58-12.17h1.64l2.6,12.17h-1.61l-.56-3.07h-2.48l-.59,3.07h-1.59.01ZM521.1,80.07h2.03l-1.02-5.48-1.01,5.48Z"/>
    <path class="st2" d="M528.25,84.36v-12.17h1.16l3.46,8.09v-8.09h1.41v12.17h-1.08l-3.5-8.31v8.31h-1.45Z"/>
    <path class="st2" d="M537.69,84.36v-12.17h4.72v1.26h-3.02v4.03h2.45v1.2h-2.45v4.46h3.05v1.22h-4.75,0Z"/>
    <path class="st2" d="M544.47,84.64v-1.22c.37,0,.67-.02.9-.07.23-.05.41-.14.53-.27.13-.13.21-.32.26-.56.05-.25.08-.56.08-.94v-9.39h1.68v9.42c0,.7-.08,1.27-.22,1.72-.15.44-.42.78-.8.99s-.92.32-1.62.32h-.81Z"/>
    <path class="st2" d="M550.67,84.36l2.58-12.17h1.64l2.6,12.17h-1.61l-.56-3.07h-2.48l-.59,3.07h-1.59.01ZM553.08,80.07h2.03l-1.02-5.48-1.01,5.48Z"/>
    <path class="st2" d="M560.2,84.36l.23-12.17h1.67l2.15,9.87,2.16-9.87h1.65l.22,12.17h-1.37l-.13-8.84-2.06,8.84h-.96l-2.04-8.84-.14,8.84h-1.38,0Z"/>
    <path class="st2" d="M571.65,84.36v-12.17h4.72v1.26h-3.02v4.03h2.45v1.2h-2.45v4.46h3.05v1.22h-4.75,0Z"/>
    <path class="st2" d="M579.27,84.36v-12.17h1.16l3.46,8.09v-8.09h1.41v12.17h-1.08l-3.5-8.31v8.31h-1.45Z"/>
    <path class="st2" d="M590.05,84.36v-10.91h-2.06v-1.26h5.75v1.26h-2v10.91h-1.7.01Z"/>
    <path class="st2" d="M599.53,84.49c-.82,0-1.48-.16-1.97-.48s-.84-.78-1.05-1.37c-.21-.6-.31-1.3-.31-2.1v-4.61c0-.8.11-1.49.32-2.07.22-.58.57-1.02,1.05-1.32.49-.3,1.14-.46,1.96-.46s1.47.16,1.95.47.83.75,1.04,1.32c.22.57.32,1.26.32,2.06v4.63c0,.79-.11,1.48-.32,2.07s-.56,1.05-1.04,1.37c-.48.33-1.13.49-1.95.49h0ZM599.53,83.16c.45,0,.79-.09,1.02-.28.23-.18.39-.44.47-.78.08-.33.12-.73.12-1.18v-5.34c0-.45-.04-.84-.12-1.16-.08-.32-.24-.58-.47-.75s-.57-.26-1.02-.26-.79.09-1.03.26c-.24.18-.39.43-.47.75-.08.33-.12.71-.12,1.16v5.34c0,.45.04.84.12,1.18.08.34.24.6.47.78.23.19.58.28,1.03.28Z"/>
    <path class="st2" d="M393.93,102.39v-12.17h1.67v12.17h-1.67Z"/>
    <path class="st2" d="M399.07,102.39v-12.17h1.16l3.46,8.09v-8.09h1.41v12.17h-1.08l-3.5-8.31v8.31h-1.45Z"/>
    <path class="st2" d="M411.38,102.53c-.7,0-1.28-.15-1.75-.45-.47-.3-.82-.72-1.06-1.25s-.38-1.15-.42-1.85l1.5-.41c.03.43.1.85.2,1.25s.28.73.52.98c.24.26.58.38,1.01.38s.78-.12,1-.37c.23-.25.34-.6.34-1.06,0-.55-.12-.99-.38-1.33-.25-.33-.57-.67-.95-1.01l-2.04-1.8c-.4-.35-.7-.73-.89-1.15s-.29-.93-.29-1.54c0-.89.25-1.58.77-2.07.51-.49,1.21-.74,2.09-.74.48,0,.9.06,1.27.19.37.13.67.32.92.58s.44.59.59.98c.15.4.24.86.29,1.39l-1.44.39c-.03-.4-.09-.77-.18-1.11-.09-.34-.25-.61-.47-.81s-.55-.31-.97-.31-.75.11-.99.34c-.23.22-.35.56-.35,1,0,.37.06.68.19.92s.33.49.61.74l2.06,1.8c.46.4.87.88,1.22,1.44.35.56.53,1.22.53,1.98,0,.6-.13,1.12-.38,1.56-.25.43-.59.77-1.03,1s-.94.34-1.51.34h0Z"/>
    <path class="st2" d="M418.46,102.39v-10.91h-2.06v-1.26h5.75v1.26h-2v10.91h-1.7.01Z"/>
    <path class="st2" d="M424.92,102.39v-12.17h1.67v12.17h-1.67Z"/>
    <path class="st2" d="M431.4,102.39v-10.91h-2.06v-1.26h5.75v1.26h-2v10.91h-1.7.01Z"/>
    <path class="st2" d="M440.91,102.53c-.88,0-1.56-.18-2.03-.53s-.79-.84-.96-1.48c-.17-.63-.25-1.38-.25-2.23v-8.07h1.62v8.14c0,.52.04,1,.11,1.43s.22.77.46,1.02c.23.25.59.38,1.06.38s.84-.12,1.07-.38.38-.59.45-1.02.11-.91.11-1.43v-8.14h1.61v8.07c0,.85-.09,1.6-.25,2.23-.17.64-.49,1.13-.95,1.48-.47.35-1.14.53-2.02.53h-.03Z"/>
    <path class="st2" d="M450.48,102.53c-.86,0-1.53-.18-2.01-.54s-.81-.85-.99-1.46c-.19-.61-.28-1.29-.28-2.04v-4.3c0-.82.09-1.54.28-2.15s.52-1.08.99-1.42c.48-.34,1.14-.5,2.01-.5.76,0,1.36.14,1.81.42.44.28.77.68.96,1.2.2.52.29,1.15.29,1.88v.96h-1.61v-.86c0-.45-.02-.85-.07-1.19-.04-.35-.17-.61-.37-.81-.2-.19-.54-.29-1.01-.29s-.83.1-1.05.31-.37.5-.43.87c-.07.38-.1.81-.1,1.32v4.82c0,.61.05,1.09.15,1.45.1.35.27.61.5.76s.54.22.93.22c.46,0,.79-.1.99-.31.2-.2.32-.49.38-.85.05-.36.08-.78.08-1.26v-.9h1.61v.9c0,.74-.09,1.4-.27,1.96s-.49,1.01-.93,1.32c-.44.32-1.06.47-1.86.47v.02Z"/>
    <path class="st2" d="M456.76,102.39v-12.17h1.67v12.17h-1.67Z"/>
    <path class="st2" d="M465.01,102.53c-.82,0-1.48-.16-1.97-.48s-.84-.78-1.05-1.37c-.21-.6-.31-1.3-.31-2.1v-4.61c0-.8.11-1.49.32-2.07.22-.58.57-1.02,1.05-1.32s1.14-.46,1.96-.46,1.47.16,1.95.47.83.75,1.04,1.32c.22.57.32,1.26.32,2.06v4.63c0,.79-.11,1.48-.32,2.07-.21.59-.56,1.05-1.04,1.38-.48.32-1.13.49-1.95.49h0ZM465.01,101.19c.45,0,.79-.09,1.02-.28s.39-.45.47-.78c.08-.34.12-.73.12-1.18v-5.33c0-.45-.04-.84-.12-1.16-.08-.33-.24-.58-.47-.75s-.57-.26-1.02-.26-.79.09-1.03.26c-.24.18-.39.43-.47.75s-.12.71-.12,1.16v5.33c0,.45.04.84.12,1.18.08.33.24.6.47.78.23.19.58.28,1.03.28Z"/>
    <path class="st2" d="M471.51,102.39v-12.17h1.16l3.46,8.09v-8.09h1.41v12.17h-1.08l-3.5-8.31v8.31h-1.45Z"/>
    <path class="st2" d="M480.28,102.39l2.58-12.17h1.64l2.6,12.17h-1.61l-.56-3.07h-2.48l-.59,3.07h-1.59,0ZM482.69,98.11h2.03l-1.02-5.48-1.01,5.48Z"/>
    <path class="st2" d="M489.84,102.39v-12.17h1.7v10.95h3.11v1.22h-4.81Z"/>
    <path class="st2" d="M502.25,102.39v-12.17h4.72v1.26h-3.02v4.03h2.45v1.2h-2.45v4.46h3.05v1.22h-4.75Z"/>
    <path class="st2" d="M514.91,102.39v-12.17h1.67v12.17h-1.67Z"/>
    <path class="st2" d="M520.05,102.39v-12.17h1.16l3.46,8.09v-8.09h1.41v12.17h-1.08l-3.5-8.31v8.31h-1.45Z"/>
    <path class="st2" d="M532.6,102.53c-.82,0-1.48-.16-1.97-.48s-.84-.78-1.05-1.37c-.21-.6-.31-1.3-.31-2.1v-4.61c0-.8.11-1.49.32-2.07.22-.58.57-1.02,1.05-1.32s1.14-.46,1.96-.46,1.47.16,1.95.47c.48.31.83.75,1.04,1.32.22.57.32,1.26.32,2.06v4.63c0,.79-.11,1.48-.32,2.07s-.56,1.05-1.04,1.38c-.48.32-1.13.49-1.95.49h0ZM532.6,101.19c.45,0,.79-.09,1.02-.28s.39-.45.47-.78c.08-.34.12-.73.12-1.18v-5.33c0-.45-.04-.84-.12-1.16-.08-.33-.24-.58-.47-.75s-.57-.26-1.02-.26-.79.09-1.03.26c-.24.18-.39.43-.47.75-.08.32-.12.71-.12,1.16v5.33c0,.45.04.84.12,1.18.08.33.24.6.47.78.23.19.58.28,1.03.28Z"/>
    <path class="st2" d="M541.21,102.39l-2.72-12.17h1.59l1.93,8.97,1.83-8.97h1.55l-2.69,12.17h-1.49Z"/>
    <path class="st2" d="M547.1,102.39l2.58-12.17h1.64l2.6,12.17h-1.61l-.56-3.07h-2.48l-.59,3.07h-1.59.01ZM549.5,98.11h2.03l-1.02-5.48-1.01,5.48Z"/>
    <path class="st2" d="M559.59,102.53c-.86,0-1.53-.18-2.01-.54s-.81-.85-.99-1.46c-.19-.61-.28-1.29-.28-2.04v-4.3c0-.82.09-1.54.28-2.15s.52-1.08.99-1.42c.48-.34,1.14-.5,2.01-.5.76,0,1.36.14,1.81.42.44.28.77.68.96,1.2.2.52.29,1.15.29,1.88v.96h-1.61v-.86c0-.45-.02-.85-.07-1.19-.04-.35-.17-.61-.37-.81-.2-.19-.54-.29-1.01-.29s-.83.1-1.05.31-.37.5-.43.87c-.07.38-.1.81-.1,1.32v4.82c0,.61.05,1.09.15,1.45.1.35.27.61.5.76s.54.22.93.22c.46,0,.79-.1.99-.31.2-.2.32-.49.38-.85.05-.36.08-.78.08-1.26v-.9h1.61v.9c0,.74-.09,1.4-.27,1.96s-.49,1.01-.93,1.32c-.44.32-1.06.47-1.86.47v.02ZM559.66,105.92c-.16,0-.33-.01-.5-.04s-.34-.07-.51-.1v-.81c.13.04.26.07.39.08.13.02.25.02.38.02.26,0,.48-.04.65-.13s.26-.24.26-.45c0-.18-.05-.32-.15-.43-.1-.11-.25-.19-.44-.25s-.42-.12-.69-.16v-1.25h.81v.84c.5,0,.9.12,1.21.35s.46.54.46.95c0,.32-.08.58-.25.79-.17.2-.39.36-.68.46s-.6.15-.95.15v-.02Z"/>
    <path class="st2" d="M565.11,102.39l2.58-12.17h1.64l2.6,12.17h-1.61l-.56-3.07h-2.48l-.59,3.07h-1.59.01ZM569.67,88.39c-.28,0-.53-.06-.74-.19-.22-.13-.42-.25-.61-.37s-.4-.18-.62-.18c-.17,0-.3.04-.38.13s-.13.25-.13.48h-.92c0-.3.04-.57.11-.82.07-.24.2-.44.38-.59s.41-.22.71-.22c.25,0,.48.06.68.18.21.12.41.24.61.36s.41.18.62.18c.17,0,.29-.04.38-.14.08-.09.12-.25.12-.5h.9c0,.3-.03.58-.09.83s-.17.45-.33.6c-.16.15-.39.23-.69.23v.02ZM567.52,98.11h2.03l-1.02-5.48-1.01,5.48Z"/>
    <path class="st2" d="M577.72,102.53c-.82,0-1.48-.16-1.97-.48s-.84-.78-1.05-1.37c-.21-.6-.31-1.3-.31-2.1v-4.61c0-.8.11-1.49.32-2.07.22-.58.57-1.02,1.05-1.32s1.14-.46,1.96-.46,1.47.16,1.95.47c.48.31.83.75,1.04,1.32.22.57.32,1.26.32,2.06v4.63c0,.79-.11,1.48-.32,2.07s-.56,1.05-1.04,1.38c-.48.32-1.13.49-1.95.49h0ZM577.72,101.19c.45,0,.79-.09,1.02-.28s.39-.45.47-.78c.08-.34.12-.73.12-1.18v-5.33c0-.45-.04-.84-.12-1.16-.08-.33-.24-.58-.47-.75s-.57-.26-1.02-.26-.79.09-1.03.26c-.24.18-.39.43-.47.75-.08.32-.12.71-.12,1.16v5.33c0,.45.04.84.12,1.18.08.33.24.6.47.78.23.19.58.28,1.03.28Z"/>
  </g>
</svg>