<?xml version="1.0" encoding="UTF-8"?>
<svg id="Camada_1" xmlns="http://www.w3.org/2000/svg" version="1.1" viewBox="0 0 200 200">
  <!-- Generator: Adobe Illustrator 30.1.0, SVG Export Plug-In . SVG Version: 2.1.1 Build 65)  -->
  <defs>
    <style>
      .st0 {
        fill-rule: evenodd;
      }
    </style>
  </defs>
  <path class="st0" d="M163.95,78.07v43.57c3.32,2.61,6.48,5.41,9.45,8.4,3.64,3.66,7.03,7.62,10.11,11.83,1.84,2.51,3.56,5.1,5.17,7.77V50.18l-.4.71c-1.74,3.01-3.85,5.79-6.16,8.8-1.37,1.78-2.77,3.49-4.2,5.13-1.44,1.64-2.95,3.25-4.53,4.84h0s0,0,0,0c-2.97,2.99-6.13,5.79-9.45,8.4"/>
  <path class="st0" d="M11.96,46.65c1.82,3.29,3.81,6.48,5.97,9.55,3.39,4.82,7.18,9.33,11.3,13.48,2.38,2.39,4.87,4.66,7.47,6.81v46.76c-2.6,2.15-5.09,4.42-7.47,6.81l-.09.09c-4.1,4.13-7.86,8.61-11.21,13.39-2.16,3.07-4.15,6.25-5.97,9.55V46.65Z"/>
  <rect x="88.91" y="136.19" width="22.29" height="22.4"/>
  <path d="M175.54,61.96c1.43-1.64,2.8-3.3,4.08-4.97,2.24-2.91,4.28-5.61,5.93-8.46,1.32-2.28,2.4-4.68,3.15-7.4h-22.3c-1.31,1.91-2.7,3.77-4.16,5.55-1.67,2.04-3.41,3.97-5.21,5.78-7.33,7.36-16.09,13.3-25.84,17.36-9.38,3.9-19.65,6.06-30.41,6.06s-21.04-2.16-30.42-6.06c-9.75-4.06-18.51-9.99-25.84-17.36h0s0,0,0,0c-1.82-1.83-3.56-3.76-5.21-5.77-1.46-1.79-2.85-3.64-4.16-5.55H11.96c2.2,4.35,4.7,8.52,7.48,12.47,3.27,4.65,6.94,9.02,10.96,13.06,9.18,9.23,20.14,16.66,32.31,21.73,11.72,4.88,24.58,7.57,38.07,7.57s26.35-2.7,38.06-7.57c12.17-5.07,23.13-12.5,32.31-21.73h0c1.49-1.5,2.96-3.07,4.39-4.7"/>
  <path d="M175.54,132.93c1.43,1.41,2.8,2.83,4.08,4.26,2.24,2.5,4.28,4.81,5.93,7.26,1.32,1.96,2.4,4.02,3.15,6.35h-22.3c-1.31-1.64-2.7-3.23-4.16-4.76-1.67-1.75-3.41-3.41-5.21-4.96-7.33-6.32-16.09-11.41-25.84-14.89-9.38-3.35-19.65-5.2-30.41-5.2s-21.04,1.85-30.42,5.2c-9.75,3.48-18.51,8.58-25.84,14.89h0s0,0,0,0c-1.82,1.57-3.56,3.23-5.21,4.95-1.46,1.53-2.85,3.12-4.16,4.76H11.96c2.2-3.73,4.7-7.31,7.48-10.7,3.27-3.99,6.94-7.74,10.96-11.2,9.18-7.92,20.14-14.29,32.31-18.64,11.72-4.19,24.58-6.5,38.07-6.5s26.35,2.31,38.06,6.5c12.17,4.35,23.13,10.72,32.31,18.64h0c1.49,1.28,2.96,2.63,4.39,4.04"/>
</svg>